<svg xmlns="http://www.w3.org/2000/svg" viewBox="70 55 110 140" height="120">
    <g class="follow">
			<path d="M128.471,105.78325 C129.216,107.86825 129.576,110.22825 129.54475,112.85575 C129.49475,116.97575 128.816,120.98825 127.501,124.86575 C126.186,128.7445 124.35975,132.3695 122.0235,135.7195 C119.67975,139.0845 116.841,142.14825 113.516,144.927 C110.1835,147.71075 106.50475,150.06075 102.4735,152.01325 L75.671,166.039993 L75.6299973,74.3799973 L101.22225,61.5845 C101.22225,61.5845 108.42475,58.657 111.53475,58.28075 C114.63725,57.89825 117.30225,58.2195 119.5235,59.23575 C121.74475,60.262 123.44225,62.04325 124.6185,64.54825 C125.78725,67.06575 126.34725,70.272 126.301,74.13575 C126.2435,78.78825 125.1535,83.41325 123.021,87.94325 C121.201,91.822 118.956,95.187 116.306,98.012 C117.861,97.73325 119.34475,97.7395 120.75975,98.0245 C122.591,98.40575 124.15225,99.2795 125.4435,100.62825 C126.726,101.98075 127.7335,103.7045 128.471,105.78325 Z M91.627125,104.784125 L99.283375,101.076625 C103.000875,99.266625 105.862125,96.967875 107.834625,94.067875 C109.814625,91.174125 110.813375,87.744125 110.859625,83.960375 C110.882125,82.002875 110.652125,80.445375 110.160875,79.289125 C109.675875,78.137875 108.907125,77.420375 107.890875,77.155375 C105.904625,76.654125 103.125875,77.302875 99.548375,79.034125 L91.893375,82.741625 C91.775875,82.797875 91.665875,82.900375 91.578375,83.051625 C91.498375,83.187875 91.449625,83.349125 91.448375,83.496625 L91.195875,104.442875 C91.193375,104.591625 91.239625,104.706625 91.315875,104.767875 C91.400875,104.835375 91.509625,104.840375 91.627125,104.784125 Z M110.6585,113.48525 C108.831,112.759 106.2485,113.24275 102.92225,114.854 L91.4385,120.414 C91.321,120.4715 91.211,120.584 91.1235,120.724 C91.04475,120.86025 90.996,121.0315 90.9935,121.17025 L90.761,140.50525 C90.7585,140.654 90.8035,140.769 90.881,140.84025 C90.966,140.89775 91.07475,140.904 91.19225,140.8465 L102.67475,135.2865 C106.456,133.44525 109.191,131.2565 110.866,128.52025 C112.4935,125.8565 113.316,122.83525 113.35475,119.58525 C113.40225,116.3215 112.4935,114.2165 110.6585,113.48525 Z" class="b-follow-d" stroke="#DD07F4"></path>
			<path d="M135.923944,167.204643 L147.601,161.5365 C151.38225,159.69525 154.116,157.5065 155.791,154.77025 C157.4185,152.1065 158.241,149.08525 158.27975,145.83525 C158.32725,142.5715 157.4185,140.4665 155.5835,139.73525 C153.756,139.009 112.4935,114.2165 110.6585,113.48525 C108.831,112.759 106.2485,113.24275 102.92225,114.854 L91.048813,120.58719 L90.7380654,140.828856 L135.923944,167.204643 Z" class="b-follow-c2" stroke="#DD07F4"></path>
			<path d="M136.38548,131.098029 L144.209,127.326625 C147.9265,125.516625 150.7865,123.217875 152.759,120.317875 C154.74025,117.424125 155.739,113.994125 155.784,110.210375 C155.80775,108.252875 155.57775,106.695375 155.0865,105.539125 C154.6015,104.387875 152.8165,103.405375 152.8165,103.405375 C152.8165,103.405375 108.907125,77.420375 107.890875,77.155375 C105.904625,76.654125 103.125875,77.302875 99.548375,79.034125 L91.893375,82.741625 C91.775875,82.797875 91.665875,82.900375 91.578375,83.051625 C91.498375,83.187875 91.449625,83.349125 91.448375,83.496625 L91.1886144,104.859919 L136.38548,131.098029 Z" class="b-follow-c1" stroke="#DD07F4"></path>
			<path d="M119.5235,59.23575 C117.30225,58.2195 114.63725,57.89825 111.53475,58.28075 C108.42475,58.657 101.22225,61.5845 101.22225,61.5845 L75.6299973,74.3799973 L120.757568,100.417969 L147.750859,87.1480728 C147.750859,87.1480728 153.386983,84.7752303 156.707648,84.398982 C157.966215,84.253719 161.35526,84.3417237 162.478659,84.398982 C153.909841,79.4994419 121.50426,60.1508901 119.5235,59.23575 Z" class="b-follow-b2" stroke="#4407F4"></path>
			<polygon class="b-follow-b1" stroke="#4407F4" points="120.625625 100.3365 75.6299973 74.35525 75.625625 166.039993 120.599998 192.289993"></polygon>
			<path d="M173.396,132.03325 C174.141,134.11825 174.50225,136.47825 174.46975,139.10575 C174.41975,143.22575 173.741,147.23825 172.426,151.11575 C171.111,154.9945 169.28475,158.6195 166.9485,161.9695 C164.60475,165.33575 161.766,168.39825 158.441,171.177 C155.1085,173.96075 151.42975,176.312 147.3985,178.26325 L120.596,192.289993 C120.596,192.289993 120.546,100.272 120.626,100.12575 C120.7135,99.9845 146.1485,87.8345 146.1485,87.8345 C146.1485,87.8345 153.351,84.907 156.45975,84.53075 C159.56225,84.14825 162.22725,84.4695 164.4485,85.48575 C166.66975,86.512 168.3685,88.29325 169.5435,90.79825 C170.71225,93.31575 171.27225,96.522 171.226,100.38575 C171.16975,105.03825 170.0785,109.66325 167.946,114.19325 C166.12725,118.072 163.881,121.437 161.231,124.262 C162.786,123.98325 164.26975,123.9895 165.68475,124.2745 C167.516,124.65575 169.07725,125.5295 170.3685,126.87825 C171.65225,128.23075 172.6585,129.9545 173.396,132.03325 Z M136.55275,131.034125 L144.209,127.326625 C147.9265,125.516625 150.7865,123.217875 152.759,120.317875 C154.74025,117.424125 155.739,113.994125 155.784,110.210375 C155.80775,108.252875 155.57775,106.695375 155.0865,105.539125 C154.6015,104.387875 153.83275,103.670375 152.8165,103.405375 C150.83025,102.904125 148.0515,103.552875 144.474,105.284125 L136.819,108.991625 C136.7015,109.047875 136.5915,109.150375 136.504,109.301625 C136.424,109.437875 136.37525,109.599125 136.374,109.746625 L136.1215,130.692875 C136.119,130.841625 136.164,130.956625 136.2415,131.017875 C136.3265,131.085375 136.43525,131.090375 136.55275,131.034125 Z M155.5835,139.73525 C153.756,139.009 151.17475,139.49275 147.84725,141.104 L136.36475,146.664 C136.246,146.7215 136.136,146.834 136.04975,146.974 C135.96975,147.11025 135.921,147.2815 135.91975,147.42025 L135.686,166.7565 C135.6835,166.904 135.72975,167.02025 135.806,167.09025 C135.891,167.1465 135.99975,167.15275 136.11725,167.0965 L147.601,161.5365 C151.38225,159.69525 154.116,157.5065 155.791,154.77025 C157.4185,152.1065 158.241,149.08525 158.27975,145.83525 C158.32725,142.5715 157.4185,140.4665 155.5835,139.73525 Z" class="b-follow-a" stroke="#4407F4"></path>
		</g>
		<g class="start">
			<path d="M128.471,105.78325 C129.216,107.86825 129.576,110.22825 129.54475,112.85575 C129.49475,116.97575 128.816,120.98825 127.501,124.86575 C126.186,128.7445 124.35975,132.3695 122.0235,135.7195 C119.67975,139.0845 116.841,142.14825 113.516,144.927 C110.1835,147.71075 106.50475,150.06075 102.4735,152.01325 L75.671,166.039993 L75.6299973,74.3799973 L101.22225,61.5845 C101.22225,61.5845 108.42475,58.657 111.53475,58.28075 C114.63725,57.89825 117.30225,58.2195 119.5235,59.23575 C121.74475,60.262 123.44225,62.04325 124.6185,64.54825 C125.78725,67.06575 126.34725,70.272 126.301,74.13575 C126.2435,78.78825 125.1535,83.41325 123.021,87.94325 C121.201,91.822 118.956,95.187 116.306,98.012 C117.861,97.73325 119.34475,97.7395 120.75975,98.0245 C122.591,98.40575 124.15225,99.2795 125.4435,100.62825 C126.726,101.98075 127.7335,103.7045 128.471,105.78325 Z M91.627125,104.784125 L99.283375,101.076625 C103.000875,99.266625 105.862125,96.967875 107.834625,94.067875 C109.814625,91.174125 110.813375,87.744125 110.859625,83.960375 C110.882125,82.002875 110.652125,80.445375 110.160875,79.289125 C109.675875,78.137875 108.907125,77.420375 107.890875,77.155375 C105.904625,76.654125 103.125875,77.302875 99.548375,79.034125 L91.893375,82.741625 C91.775875,82.797875 91.665875,82.900375 91.578375,83.051625 C91.498375,83.187875 91.449625,83.349125 91.448375,83.496625 L91.195875,104.442875 C91.193375,104.591625 91.239625,104.706625 91.315875,104.767875 C91.400875,104.835375 91.509625,104.840375 91.627125,104.784125 Z M110.6585,113.48525 C108.831,112.759 106.2485,113.24275 102.92225,114.854 L91.4385,120.414 C91.321,120.4715 91.211,120.584 91.1235,120.724 C91.04475,120.86025 90.996,121.0315 90.9935,121.17025 L90.761,140.50525 C90.7585,140.654 90.8035,140.769 90.881,140.84025 C90.966,140.89775 91.07475,140.904 91.19225,140.8465 L102.67475,135.2865 C106.456,133.44525 109.191,131.2565 110.866,128.52025 C112.4935,125.8565 113.316,122.83525 113.35475,119.58525 C113.40225,116.3215 112.4935,114.2165 110.6585,113.48525 Z" class="b-start-d" stroke="#8A9EA3"></path>
			<path d="M135.923944,167.204643 L147.601,161.5365 C151.38225,159.69525 154.116,157.5065 155.791,154.77025 C157.4185,152.1065 158.241,149.08525 158.27975,145.83525 C158.32725,142.5715 157.4185,140.4665 155.5835,139.73525 C153.756,139.009 112.4935,114.2165 110.6585,113.48525 C108.831,112.759 106.2485,113.24275 102.92225,114.854 L91.048813,120.58719 L90.7380654,140.828856 L135.923944,167.204643 Z" class="b-start-c2" stroke="#8A9EA3"></path>
			<path d="M136.38548,131.098029 L144.209,127.326625 C147.9265,125.516625 150.7865,123.217875 152.759,120.317875 C154.74025,117.424125 155.739,113.994125 155.784,110.210375 C155.80775,108.252875 155.57775,106.695375 155.0865,105.539125 C154.6015,104.387875 152.8165,103.405375 152.8165,103.405375 C152.8165,103.405375 108.907125,77.420375 107.890875,77.155375 C105.904625,76.654125 103.125875,77.302875 99.548375,79.034125 L91.893375,82.741625 C91.775875,82.797875 91.665875,82.900375 91.578375,83.051625 C91.498375,83.187875 91.449625,83.349125 91.448375,83.496625 L91.1886144,104.859919 L136.38548,131.098029 Z" class="b-start-c1" stroke="#8A9EA3"></path>
			<path d="M119.5235,59.23575 C117.30225,58.2195 114.63725,57.89825 111.53475,58.28075 C108.42475,58.657 101.22225,61.5845 101.22225,61.5845 L75.6299973,74.3799973 L120.757568,100.417969 L147.750859,87.1480728 C147.750859,87.1480728 153.386983,84.7752303 156.707648,84.398982 C157.966215,84.253719 161.35526,84.3417237 162.478659,84.398982 C153.909841,79.4994419 121.50426,60.1508901 119.5235,59.23575 Z" class="b-start-b2" stroke="#c9d1d9"></path>
			<polygon class="b-start-b1" stroke="#c9d1d9" points="120.625625 100.3365 75.6299973 74.35525 75.625625 166.039993 120.599998 192.289993"></polygon>
			<path d="M173.396,132.03325 C174.141,134.11825 174.50225,136.47825 174.46975,139.10575 C174.41975,143.22575 173.741,147.23825 172.426,151.11575 C171.111,154.9945 169.28475,158.6195 166.9485,161.9695 C164.60475,165.33575 161.766,168.39825 158.441,171.177 C155.1085,173.96075 151.42975,176.312 147.3985,178.26325 L120.596,192.289993 C120.596,192.289993 120.546,100.272 120.626,100.12575 C120.7135,99.9845 146.1485,87.8345 146.1485,87.8345 C146.1485,87.8345 153.351,84.907 156.45975,84.53075 C159.56225,84.14825 162.22725,84.4695 164.4485,85.48575 C166.66975,86.512 168.3685,88.29325 169.5435,90.79825 C170.71225,93.31575 171.27225,96.522 171.226,100.38575 C171.16975,105.03825 170.0785,109.66325 167.946,114.19325 C166.12725,118.072 163.881,121.437 161.231,124.262 C162.786,123.98325 164.26975,123.9895 165.68475,124.2745 C167.516,124.65575 169.07725,125.5295 170.3685,126.87825 C171.65225,128.23075 172.6585,129.9545 173.396,132.03325 Z M136.55275,131.034125 L144.209,127.326625 C147.9265,125.516625 150.7865,123.217875 152.759,120.317875 C154.74025,117.424125 155.739,113.994125 155.784,110.210375 C155.80775,108.252875 155.57775,106.695375 155.0865,105.539125 C154.6015,104.387875 153.83275,103.670375 152.8165,103.405375 C150.83025,102.904125 148.0515,103.552875 144.474,105.284125 L136.819,108.991625 C136.7015,109.047875 136.5915,109.150375 136.504,109.301625 C136.424,109.437875 136.37525,109.599125 136.374,109.746625 L136.1215,130.692875 C136.119,130.841625 136.164,130.956625 136.2415,131.017875 C136.3265,131.085375 136.43525,131.090375 136.55275,131.034125 Z M155.5835,139.73525 C153.756,139.009 151.17475,139.49275 147.84725,141.104 L136.36475,146.664 C136.246,146.7215 136.136,146.834 136.04975,146.974 C135.96975,147.11025 135.921,147.2815 135.91975,147.42025 L135.686,166.7565 C135.6835,166.904 135.72975,167.02025 135.806,167.09025 C135.891,167.1465 135.99975,167.15275 136.11725,167.0965 L147.601,161.5365 C151.38225,159.69525 154.116,157.5065 155.791,154.77025 C157.4185,152.1065 158.241,149.08525 158.27975,145.83525 C158.32725,142.5715 157.4185,140.4665 155.5835,139.73525 Z" class="b-start-a" stroke="#c9d1d9"></path>
		</g>

    <style>
        .start *,
        .follow * {
            opacity: 0;
        }
        svg {
		stroke-width: 2;
		fill-rule: evenodd;
		stroke-linecap: round;
		stroke-linejoin: round;
		/* background: #101928; */
		fill: #0d1117;
        }

        svg {
  -webkit-animation: svg-fill 1000ms ease-in-out 1750ms both;
          animation: svg-fill 1000ms ease-in-out 1750ms both;
}
svg .b-start-a,
svg .b-follow-a,
svg .b-start-d,
svg .b-follow-d {
  stroke-dashoffset: 446.77;
  stroke-dasharray: 446.77;
  -webkit-animation: b-a cubic-bezier(0, 0.47, 0.1, 0.99) forwards;
          animation: b-a cubic-bezier(0, 0.47, 0.1, 0.99) forwards;
}
svg .b-start-a {
  -webkit-animation-duration: 1800ms;
          animation-duration: 1800ms;
  -webkit-animation-delay: 650ms;
          animation-delay: 650ms;
}
svg .b-follow-a {
  -webkit-animation-duration: 1500ms;
          animation-duration: 1500ms;
  -webkit-animation-delay: 500ms;
          animation-delay: 500ms;
}
svg .b-start-d {
  -webkit-animation-duration: 800ms;
          animation-duration: 800ms;
  -webkit-animation-delay: 1400ms;
          animation-delay: 1400ms;
}
svg .b-follow-d {
  -webkit-animation-duration: 500ms;
          animation-duration: 500ms;
  -webkit-animation-delay: 1250ms;
          animation-delay: 1250ms;
}
svg .b-start-b1,
svg .b-follow-b1 {
  stroke-dashoffset: 287.67;
  stroke-dasharray: 287.67;
  -webkit-animation: b-b1 cubic-bezier(0, 0.47, 0.1, 0.99) forwards;
          animation: b-b1 cubic-bezier(0, 0.47, 0.1, 0.99) forwards;
}
svg .b-start-b2,
svg .b-follow-b2 {
  stroke-dashoffset: 194.74;
  stroke-dasharray: 194.74;
  -webkit-animation: b-b2 cubic-bezier(0, 0.47, 0.1, 0.99) forwards;
          animation: b-b2 cubic-bezier(0, 0.47, 0.1, 0.99) forwards;
}
svg .b-start-b1,
svg .b-start-b2 {
  -webkit-animation-duration: 800ms;
          animation-duration: 800ms;
  -webkit-animation-delay: 650ms;
          animation-delay: 650ms;
}
svg .b-follow-b1,
svg .b-follow-b2 {
  -webkit-animation-duration: 500ms;
          animation-duration: 500ms;
  -webkit-animation-delay: 500ms;
          animation-delay: 500ms;
}
svg .b-start-c1,
svg .b-follow-c1 {
  stroke-dashoffset: 182.29;
  stroke-dasharray: 182.29;
  -webkit-animation: b-c1 cubic-bezier(0, 0.47, 0.1, 0.99) forwards;
          animation: b-c1 cubic-bezier(0, 0.47, 0.1, 0.99) forwards;
}
svg .b-start-c1 {
  -webkit-animation-duration: 800ms;
          animation-duration: 800ms;
  -webkit-animation-delay: 900ms;
          animation-delay: 900ms;
}
svg .b-follow-c1 {
  -webkit-animation-duration: 500ms;
          animation-duration: 500ms;
  -webkit-animation-delay: 750ms;
          animation-delay: 750ms;
}
svg .b-start-c2,
svg .b-follow-c2 {
  stroke-dashoffset: 186.09;
  stroke-dasharray: 186.09;
  -webkit-animation: b-c2 cubic-bezier(0, 0.47, 0.1, 0.99) forwards;
          animation: b-c2 cubic-bezier(0, 0.47, 0.1, 0.99) forwards;
}
svg .b-start-c2 {
  -webkit-animation-duration: 800ms;
          animation-duration: 800ms;
  -webkit-animation-delay: 1150ms;
          animation-delay: 1150ms;
}
svg .b-follow-c2 {
  -webkit-animation-duration: 500ms;
          animation-duration: 500ms;
  -webkit-animation-delay: 900ms;
          animation-delay: 900ms;
}

@-webkit-keyframes b-c2 {
  0% {
    opacity: 0;
    stroke-dashoffset: 186.09;
  }
  1% {
    opacity: 1;
  }
  100% {
    opacity: 1;
    stroke-dashoffset: 0;
  }
}

@keyframes b-c2 {
  0% {
    opacity: 0;
    stroke-dashoffset: 186.09;
  }
  1% {
    opacity: 1;
  }
  100% {
    opacity: 1;
    stroke-dashoffset: 0;
  }
}
@-webkit-keyframes b-c1 {
  0% {
    opacity: 0;
    stroke-dashoffset: 182.29;
  }
  1% {
    opacity: 1;
  }
  100% {
    opacity: 1;
    stroke-dashoffset: 0;
  }
}
@keyframes b-c1 {
  0% {
    opacity: 0;
    stroke-dashoffset: 182.29;
  }
  1% {
    opacity: 1;
  }
  100% {
    opacity: 1;
    stroke-dashoffset: 0;
  }
}
@-webkit-keyframes b-b2 {
  0% {
    opacity: 0;
    stroke-dashoffset: 194.74;
  }
  1% {
    opacity: 1;
  }
  100% {
    opacity: 1;
    stroke-dashoffset: 0;
  }
}
@keyframes b-b2 {
  0% {
    opacity: 0;
    stroke-dashoffset: 194.74;
  }
  1% {
    opacity: 1;
  }
  100% {
    opacity: 1;
    stroke-dashoffset: 0;
  }
}
@-webkit-keyframes b-b1 {
  0% {
    opacity: 0;
    stroke-dashoffset: -287.67;
  }
  1% {
    opacity: 1;
  }
  100% {
    opacity: 1;
    stroke-dashoffset: 0;
  }
}
@keyframes b-b1 {
  0% {
    opacity: 0;
    stroke-dashoffset: -287.67;
  }
  1% {
    opacity: 1;
  }
  100% {
    opacity: 1;
    stroke-dashoffset: 0;
  }
}
@-webkit-keyframes b-a {
  0% {
    opacity: 0;
    stroke-dashoffset: -446.77;
  }
  1% {
    opacity: 1;
  }
  100% {
    opacity: 1;
    stroke-dashoffset: 0;
  }
}
@keyframes b-a {
  0% {
    opacity: 0;
    stroke-dashoffset: -446.77;
  }
  1% {
    opacity: 1;
  }
  100% {
    opacity: 1;
    stroke-dashoffset: 0;
  }
}
    </style>
</svg>
